<svg xmlns="http://www.w3.org/2000/svg" width="24.003" height="24.003" viewBox="0 0 24.003 24.003"><defs><style>.a{opacity:0.5;}.b{fill:#fff;stroke:#fff;stroke-width:0.5px;}</style></defs><g class="a" transform="translate(0.25 0.25)"><path class="b" d="M8.686,0H1.532A1.534,1.534,0,0,0,0,1.533V8.686a1.535,1.535,0,0,0,1.533,1.533H8.686a1.535,1.535,0,0,0,1.533-1.533V1.533A1.535,1.535,0,0,0,8.686,0ZM9.2,8.686a.512.512,0,0,1-.511.511H1.533a.512.512,0,0,1-.511-.511V1.533a.511.511,0,0,1,.51-.511H8.686a.512.512,0,0,1,.511.511V8.686Z"/><path class="b" d="M298.078,0h-7.153a1.535,1.535,0,0,0-1.533,1.533V8.686a1.535,1.535,0,0,0,1.533,1.533h7.153a1.535,1.535,0,0,0,1.533-1.533V1.533A1.535,1.535,0,0,0,298.078,0Zm.511,8.686a.511.511,0,0,1-.511.511h-7.153a.511.511,0,0,1-.511-.511V1.533a.511.511,0,0,1,.511-.511h7.153a.511.511,0,0,1,.511.511Z" transform="translate(-276.108)"/><path class="b" d="M8.686,289.391H1.532A1.534,1.534,0,0,0,0,290.924v7.153a1.535,1.535,0,0,0,1.533,1.533H8.686a1.535,1.535,0,0,0,1.533-1.533v-7.153A1.535,1.535,0,0,0,8.686,289.391Zm.511,8.686a.511.511,0,0,1-.511.511H1.533a.511.511,0,0,1-.511-.511v-7.153a.511.511,0,0,1,.51-.511H8.686a.511.511,0,0,1,.511.511v7.153Z" transform="translate(0 -276.107)"/><path class="b" d="M298.078,289.391h-7.153a1.535,1.535,0,0,0-1.533,1.533v7.153a1.535,1.535,0,0,0,1.533,1.533h7.153a1.535,1.535,0,0,0,1.533-1.533v-7.153A1.535,1.535,0,0,0,298.078,289.391Zm.511,8.686a.511.511,0,0,1-.511.511h-7.153a.511.511,0,0,1-.511-.511v-7.153a.511.511,0,0,1,.511-.511h7.153a.511.511,0,0,1,.511.511Z" transform="translate(-276.108 -276.107)"/></g></svg>