<svg xmlns="http://www.w3.org/2000/svg" width="23.999" height="22.498" viewBox="0 0 23.999 22.498"><defs><style>.a{opacity:0.5;}.b{fill:#fff;}</style></defs><g class="a" transform="translate(0 -16.017)"><path class="b" d="M58.093,206.214H42.156A2.159,2.159,0,0,1,40,204.057V192.713a.75.75,0,0,1,1.5,0v11.344a.657.657,0,0,0,.656.656H58.093a.657.657,0,0,0,.656-.656V192.713a.75.75,0,0,1,1.5,0v11.344A2.159,2.159,0,0,1,58.093,206.214Z" transform="translate(-38.125 -167.699)"/><path class="b" d="M23.25,27.639a.747.747,0,0,1-.53-.22l-9.327-9.327a1.971,1.971,0,0,0-2.784,0L1.281,27.419A.75.75,0,1,1,.22,26.359l9.327-9.327a3.473,3.473,0,0,1,4.905,0l9.327,9.327a.75.75,0,0,1-.53,1.28Z"/><path class="b" d="M182.75,297.733h-6a.75.75,0,0,1-.75-.75v-6.656a2.346,2.346,0,0,1,2.344-2.344h2.812a2.346,2.346,0,0,1,2.344,2.344v6.656A.75.75,0,0,1,182.75,297.733Zm-5.25-1.5H182v-5.906a.845.845,0,0,0-.844-.844h-2.812a.845.845,0,0,0-.844.844Z" transform="translate(-167.75 -259.218)"/></g></svg>