<svg xmlns="http://www.w3.org/2000/svg" width="17.333" height="13" viewBox="0 0 17.333 13"><defs><style>.a{fill:#284558;}</style></defs><path class="a" d="M15.708,59.882H1.625A1.627,1.627,0,0,0,0,61.507v9.75a1.627,1.627,0,0,0,1.625,1.625H15.708a1.627,1.627,0,0,0,1.625-1.625v-9.75A1.627,1.627,0,0,0,15.708,59.882Zm0,1.083a.538.538,0,0,1,.208.042L8.667,67.29,1.417,61.007a.539.539,0,0,1,.208-.042Zm0,10.833H1.625a.542.542,0,0,1-.542-.542V62.152l7.228,6.265a.542.542,0,0,0,.71,0l7.228-6.265v9.105A.542.542,0,0,1,15.708,71.8Z" transform="translate(0 -59.882)"/></svg>