<svg xmlns="http://www.w3.org/2000/svg" width="15.424" height="18.28" viewBox="0 0 15.424 18.28"><defs><style>.a{fill:#284558;}</style></defs><g transform="translate(-40 0)"><path class="a" d="M54.852,14.281h-.609a3.3,3.3,0,0,1-.819-2.187V8a5.723,5.723,0,0,0-4.186-5.505,1.713,1.713,0,1,0-3.052,0A5.723,5.723,0,0,0,42,8v4.1a3.3,3.3,0,0,1-.819,2.187h-.609a.571.571,0,1,0,0,1.142H45.5a2.285,2.285,0,1,0,4.424,0h4.929a.571.571,0,1,0,0-1.142ZM47.141,1.714a.571.571,0,1,1,.571.571A.572.572,0,0,1,47.141,1.714Zm.571,15.424a1.144,1.144,0,0,1-.989-1.714H48.7A1.144,1.144,0,0,1,47.712,17.137Zm-5.139-2.856a4.447,4.447,0,0,0,.569-2.187V8a4.57,4.57,0,0,1,9.14,0v4.1a4.447,4.447,0,0,0,.569,2.187Z" transform="translate(0)"/></g></svg>