<svg xmlns="http://www.w3.org/2000/svg" width="23.503" height="23.503" viewBox="0 0 23.503 23.503"><defs><style>.a{opacity:0.5;}.b{fill:#fff;}</style></defs><g class="a"><path class="b" d="M20.978,0H2.525A2.528,2.528,0,0,0,0,2.525V20.978A2.528,2.528,0,0,0,2.525,23.5H20.978A2.528,2.528,0,0,0,23.5,20.978V2.525A2.528,2.528,0,0,0,20.978,0ZM1.377,2.525A1.149,1.149,0,0,1,2.525,1.377H20.978a1.149,1.149,0,0,1,1.148,1.148V15.7H1.377ZM22.125,20.978a1.149,1.149,0,0,1-1.148,1.148H2.525a1.149,1.149,0,0,1-1.148-1.148v-3.9H22.125Z" transform="translate(0 0)"/><path class="b" d="M61.689,394.3H71.1v.23a.689.689,0,1,0,1.377,0v-.23h5.738a.689.689,0,0,0,0-1.377H72.476v-.23a.689.689,0,1,0-1.377,0v.23h-9.41a.689.689,0,1,0,0,1.377Z" transform="translate(-58.2 -374.006)"/><path class="b" d="M87.49,82.322l-7.8-2.3a.688.688,0,0,0-.389,0l-7.8,2.3a.689.689,0,0,0,0,1.321l2.719.8v3.589a.689.689,0,0,0,.689.689h9.181a.689.689,0,0,0,.689-.689V84.443l1.836-.54v3.211a.689.689,0,0,0,1.377,0V82.983A.689.689,0,0,0,87.49,82.322Zm-4.1,5.021h-7.8v-2.5l3.708,1.09a.689.689,0,0,0,.389,0l3.707-1.09Zm-3.9-2.783-5.363-1.577,5.363-1.577,5.363,1.577Z" transform="translate(-67.741 -76.327)"/></g></svg>