<svg xmlns="http://www.w3.org/2000/svg" width="25.31" height="21.944" viewBox="0 0 25.31 21.944"><defs><style>.a{fill:#4fb4b3;stroke:#4fb4b3;}</style></defs><g transform="translate(0.501 0.51)"><path class="a" d="M0,44.454A1.178,1.178,0,0,0,.845,45.52l8.9,2.692.327,6.137a.609.609,0,0,0,.411.535.558.558,0,0,0,.2.035.6.6,0,0,0,.456-.2l3.148-3.485,4.461,3.088a1.17,1.17,0,0,0,.674.213,1.2,1.2,0,0,0,1.165-.952l3.7-18.871a.606.606,0,0,0-.823-.679L.716,43.289A1.2,1.2,0,0,0,0,44.454Zm11.2,8.372L11,48.955l2.28,1.576Zm8.2.471-8.12-5.621L22.67,36.662Zm2.017-17.121L10.164,47.067,1.271,44.38Z" transform="translate(0 -33.985)"/></g></svg>