<svg xmlns="http://www.w3.org/2000/svg" width="20.934" height="20.934" viewBox="0 0 20.934 20.934"><defs><style>.a{fill:#a2a2a2;}</style></defs><path class="a" d="M15.332,8.995a.818.818,0,0,1-.818-.818.409.409,0,1,0-.818,0,.818.818,0,1,1-1.635,0,2.044,2.044,0,1,1,4.089,0A.818.818,0,0,1,15.332,8.995ZM8.913,8.177a2.044,2.044,0,1,0-4.089,0,.818.818,0,1,0,1.635,0,.409.409,0,0,1,.818,0,.818.818,0,1,0,1.635,0Zm6.969,11.248a.818.818,0,1,0-.847-1.4A8.91,8.91,0,1,1,17.8,15.368a.818.818,0,1,0,1.36.909A10.461,10.461,0,0,0,3.066,3.066a10.468,10.468,0,0,0,12.817,16.36Zm-1.9-7.527a.816.816,0,0,0-.651.325,4.151,4.151,0,0,1-5.73,0,.817.817,0,1,0-1.215,1.084,5.75,5.75,0,0,0,8.161,0,.817.817,0,0,0-.564-1.409Z"/></svg>